<svg width="809" height="583" viewBox="0 0 809 583" fill="none" xmlns="http://www.w3.org/2000/svg">
<rect x="268.541" y="563.931" width="272.234" height="18.7748" fill="white"/>
<rect x="1" y="563.931" width="267.54" height="18.7748" fill="#149449"/>
<rect x="540.775" y="563.931" width="267.54" height="18.7748" fill="#ED1C24"/>
<rect x="1" y="563.931" width="807.315" height="18.7748" stroke="black" stroke-width="0.469369"/>
<path d="M479.957 547.771H475.286L482.16 534.26H474.136V530.811H486.448V534.021L479.957 547.771Z" fill="#6F6F6F"/>
<path d="M468.662 542.07C468.662 543.028 468.487 543.89 468.135 544.657C467.784 545.423 467.305 546.07 466.698 546.597C466.091 547.124 465.381 547.523 464.566 547.795C463.752 548.082 462.889 548.226 461.979 548.226C461.053 548.226 460.183 548.082 459.368 547.795C458.57 547.523 457.867 547.124 457.26 546.597C456.653 546.07 456.174 545.431 455.823 544.681C455.472 543.93 455.296 543.092 455.296 542.165C455.296 541.159 455.472 540.249 455.823 539.435C456.174 538.604 456.629 537.766 457.188 536.919L461.284 530.811H466.147L461.979 536.608L461.907 536.728C462.067 536.664 462.259 536.616 462.482 536.584C462.706 536.552 462.913 536.536 463.105 536.536C463.84 536.536 464.542 536.672 465.213 536.943C465.9 537.199 466.491 537.574 466.986 538.069C467.497 538.548 467.904 539.131 468.207 539.818C468.511 540.489 468.662 541.239 468.662 542.07ZM464.638 542.165C464.638 541.399 464.399 540.768 463.919 540.273C463.44 539.762 462.802 539.506 462.003 539.506C461.205 539.506 460.558 539.754 460.063 540.249C459.568 540.744 459.32 541.391 459.32 542.189C459.32 542.924 459.56 543.555 460.039 544.082C460.518 544.609 461.165 544.872 461.979 544.872C462.778 544.872 463.416 544.625 463.895 544.13C464.391 543.635 464.638 542.98 464.638 542.165Z" fill="#6F6F6F"/>
<path d="M450.324 536.417C450.324 537.423 450.149 538.342 449.797 539.172C449.446 539.987 448.991 540.817 448.432 541.663L444.336 547.772H439.473L443.689 541.927L443.737 541.855C443.561 541.919 443.362 541.967 443.138 541.999C442.931 542.031 442.731 542.047 442.539 542.047C441.789 542.047 441.078 541.919 440.407 541.663C439.737 541.392 439.146 541.017 438.635 540.537C438.124 540.042 437.717 539.46 437.413 538.789C437.11 538.102 436.958 537.344 436.958 536.513C436.958 535.555 437.134 534.693 437.485 533.926C437.836 533.16 438.315 532.513 438.922 531.986C439.529 531.459 440.24 531.06 441.054 530.788C441.869 530.501 442.731 530.357 443.641 530.357C444.567 530.357 445.438 530.501 446.252 530.788C447.067 531.06 447.769 531.459 448.36 531.986C448.967 532.513 449.446 533.152 449.797 533.902C450.149 534.653 450.324 535.491 450.324 536.417ZM446.3 536.369C446.3 535.635 446.061 535.004 445.582 534.477C445.118 533.934 444.48 533.663 443.665 533.663C442.851 533.663 442.196 533.918 441.701 534.429C441.222 534.924 440.982 535.579 440.982 536.393C440.982 537.16 441.222 537.799 441.701 538.31C442.18 538.805 442.819 539.052 443.617 539.052C444.416 539.052 445.063 538.805 445.558 538.31C446.053 537.815 446.3 537.168 446.3 536.369Z" fill="#6F6F6F"/>
<path d="M424.324 547.771V535.314L421.162 537.758L419.078 534.907L424.659 530.811H428.348V547.771H424.324Z" fill="#6F6F6F"/>
<path d="M393.004 547.771V530.811H404.406V534.284H396.956V537.47H403.999V540.752H396.956V544.273H404.837V547.771H393.004Z" fill="#6F6F6F"/>
<path d="M388.374 545.424C387.624 546.287 386.697 546.973 385.595 547.484C384.494 547.979 383.224 548.227 381.787 548.227C380.477 548.227 379.264 548.011 378.146 547.58C377.044 547.149 376.086 546.542 375.271 545.76C374.457 544.961 373.818 544.011 373.355 542.909C372.892 541.807 372.66 540.593 372.66 539.268C372.66 537.911 372.892 536.681 373.355 535.579C373.834 534.477 374.489 533.543 375.319 532.776C376.149 531.994 377.124 531.395 378.241 530.98C379.359 530.565 380.565 530.357 381.859 530.357C383.056 530.357 384.23 530.573 385.38 531.004C386.546 531.419 387.488 532.034 388.206 532.848L385.428 535.627C385.045 535.1 384.541 534.709 383.919 534.453C383.296 534.198 382.657 534.07 382.002 534.07C381.284 534.07 380.621 534.206 380.014 534.477C379.423 534.733 378.912 535.092 378.481 535.555C378.05 536.018 377.715 536.569 377.475 537.208C377.235 537.831 377.116 538.517 377.116 539.268C377.116 540.034 377.235 540.737 377.475 541.376C377.715 542.015 378.042 542.566 378.457 543.029C378.888 543.476 379.399 543.827 379.99 544.083C380.581 544.338 381.228 544.466 381.93 544.466C382.745 544.466 383.456 544.306 384.062 543.987C384.669 543.668 385.156 543.252 385.524 542.741L388.374 545.424Z" fill="#6F6F6F"/>
<path d="M362.432 547.771L355.605 536.68H355.533L355.629 547.771H351.652V530.811H356.323L363.126 541.878H363.198L363.102 530.811H367.079V547.771H362.432Z" fill="#6F6F6F"/>
<path d="M341.154 547.771V530.811H345.274V547.771H341.154Z" fill="#6F6F6F"/>
<path d="M333.084 535.221C332.732 534.773 332.269 534.422 331.694 534.167C331.135 533.895 330.592 533.759 330.065 533.759C329.794 533.759 329.514 533.783 329.227 533.831C328.955 533.879 328.708 533.975 328.484 534.119C328.261 534.246 328.069 534.422 327.909 534.646C327.766 534.853 327.694 535.125 327.694 535.46C327.694 535.748 327.75 535.987 327.862 536.179C327.989 536.37 328.165 536.538 328.389 536.682C328.628 536.826 328.908 536.961 329.227 537.089C329.546 537.201 329.906 537.321 330.305 537.448C330.88 537.64 331.479 537.856 332.101 538.095C332.724 538.319 333.291 538.622 333.802 539.005C334.313 539.389 334.736 539.868 335.072 540.443C335.407 541.002 335.575 541.704 335.575 542.551C335.575 543.525 335.391 544.371 335.024 545.09C334.673 545.792 334.193 546.375 333.587 546.838C332.98 547.302 332.285 547.645 331.503 547.868C330.72 548.092 329.914 548.204 329.083 548.204C327.87 548.204 326.696 547.996 325.562 547.581C324.428 547.15 323.486 546.543 322.735 545.76L325.418 543.03C325.833 543.541 326.376 543.972 327.047 544.323C327.734 544.659 328.413 544.826 329.083 544.826C329.387 544.826 329.682 544.794 329.97 544.73C330.257 544.667 330.505 544.563 330.712 544.419C330.936 544.275 331.111 544.084 331.239 543.844C331.367 543.605 331.431 543.317 331.431 542.982C331.431 542.662 331.351 542.391 331.191 542.167C331.032 541.944 330.8 541.744 330.497 541.568C330.209 541.377 329.842 541.209 329.395 541.065C328.963 540.906 328.468 540.738 327.909 540.562C327.367 540.387 326.832 540.179 326.305 539.94C325.794 539.7 325.33 539.397 324.915 539.029C324.516 538.646 324.189 538.191 323.933 537.664C323.694 537.121 323.574 536.466 323.574 535.7C323.574 534.757 323.765 533.951 324.149 533.28C324.532 532.61 325.035 532.059 325.658 531.627C326.281 531.196 326.983 530.885 327.766 530.693C328.548 530.486 329.339 530.382 330.137 530.382C331.095 530.382 332.07 530.558 333.06 530.909C334.066 531.26 334.944 531.779 335.695 532.466L333.084 535.221Z" fill="#6F6F6F"/>
<path d="M794.848 461.498C793.432 459.697 791.566 458.281 789.249 457.251C786.997 456.157 784.809 455.61 782.686 455.61C781.592 455.61 780.466 455.707 779.308 455.9C778.214 456.093 777.216 456.479 776.316 457.058C775.415 457.573 774.642 458.281 773.999 459.182C773.42 460.018 773.13 461.112 773.13 462.463C773.13 463.622 773.356 464.587 773.806 465.359C774.321 466.131 775.029 466.807 775.929 467.386C776.895 467.965 778.021 468.512 779.308 469.027C780.595 469.477 782.042 469.96 783.651 470.475C785.968 471.247 788.381 472.116 790.89 473.081C793.4 473.982 795.684 475.204 797.743 476.749C799.802 478.293 801.508 480.223 802.859 482.54C804.21 484.792 804.886 487.623 804.886 491.034C804.886 494.959 804.146 498.369 802.666 501.265C801.25 504.096 799.32 506.445 796.875 508.311C794.429 510.177 791.63 511.561 788.477 512.462C785.324 513.362 782.075 513.813 778.729 513.813C773.838 513.813 769.109 512.976 764.54 511.303C759.971 509.566 756.175 507.121 753.15 503.968L763.961 492.964C765.634 495.023 767.822 496.761 770.524 498.176C773.291 499.528 776.026 500.203 778.729 500.203C779.951 500.203 781.142 500.075 782.3 499.817C783.458 499.56 784.456 499.142 785.292 498.562C786.193 497.983 786.901 497.211 787.415 496.246C787.93 495.281 788.188 494.123 788.188 492.771C788.188 491.484 787.866 490.39 787.222 489.489C786.579 488.589 785.646 487.784 784.423 487.076C783.265 486.304 781.785 485.629 779.983 485.049C778.246 484.406 776.251 483.73 773.999 483.023C771.811 482.315 769.656 481.478 767.532 480.513C765.473 479.548 763.607 478.325 761.934 476.845C760.325 475.301 759.006 473.467 757.976 471.343C757.011 469.156 756.529 466.517 756.529 463.429C756.529 459.632 757.301 456.383 758.845 453.68C760.389 450.977 762.416 448.757 764.926 447.02C767.436 445.283 770.267 444.028 773.42 443.256C776.573 442.419 779.758 442.001 782.976 442.001C786.836 442.001 790.762 442.709 794.751 444.124C798.805 445.54 802.344 447.631 805.368 450.398L794.848 461.498Z" fill="#ED1C24"/>
<path d="M690.468 512.075V443.738H736.412V457.734H706.394V470.571H734.771V483.795H706.394V497.983H738.149V512.075H690.468Z" fill="#ED1C24"/>
<path d="M648.903 512.075H632.398L606.53 443.738H625.062L640.892 492.192H641.278L657.011 443.738H675.253L648.903 512.075Z" fill="#ED1C24"/>
<path d="M559.749 512.075V443.738H576.351V497.694H602.798V512.075H559.749Z" fill="#ED1C24"/>
<path d="M526.11 512.075L520.802 498.659H494.355L489.336 512.075H471.383L500.05 443.738H516.072L544.449 512.075H526.11ZM507.771 461.981L499.084 485.435H516.265L507.771 461.981Z" fill="#ED1C24"/>
<path d="M441.137 512.075H424.631L398.764 443.738H417.296L433.125 492.192H433.511L449.244 443.738H467.487L441.137 512.075Z" fill="#ED1C24"/>
<path d="M358.443 502.616C355.419 506.091 351.687 508.858 347.247 510.917C342.807 512.912 337.691 513.909 331.9 513.909C326.623 513.909 321.733 513.041 317.228 511.303C312.788 509.566 308.928 507.121 305.646 503.968C302.364 500.75 299.79 496.921 297.924 492.481C296.058 488.041 295.125 483.151 295.125 477.81C295.125 472.341 296.058 467.386 297.924 462.946C299.855 458.506 302.493 454.742 305.839 451.653C309.185 448.5 313.11 446.087 317.614 444.414C322.119 442.741 326.977 441.904 332.189 441.904C337.015 441.904 341.745 442.773 346.378 444.51C351.075 446.183 354.872 448.661 357.767 451.943L346.571 463.139C345.027 461.016 343 459.439 340.49 458.409C337.98 457.38 335.407 456.865 332.768 456.865C329.873 456.865 327.202 457.412 324.757 458.506C322.376 459.536 320.317 460.983 318.58 462.849C316.842 464.716 315.491 466.935 314.526 469.509C313.561 472.019 313.078 474.786 313.078 477.81C313.078 480.899 313.561 483.73 314.526 486.304C315.491 488.878 316.81 491.098 318.483 492.964C320.221 494.766 322.28 496.181 324.661 497.211C327.041 498.241 329.647 498.755 332.479 498.755C335.76 498.755 338.624 498.112 341.069 496.825C343.514 495.538 345.477 493.865 346.957 491.806L358.443 502.616Z" fill="#27569B"/>
<path d="M230.031 512.076V443.739H275.975V457.734H245.957V470.572H274.335V483.795H245.957V497.984H277.713V512.076H230.031Z" fill="#27569B"/>
<path d="M190.161 512.076L190.547 463.719H190.258L172.498 512.076H160.915L143.638 463.719H143.348L143.734 512.076H128.194V443.739H151.649L167.189 487.559H167.575L182.439 443.739H206.28V512.076H190.161Z" fill="#27569B"/>
<path d="M87.8105 512.076V443.739H104.412V512.076H87.8105Z" fill="#27569B"/>
<path d="M46.2459 512.076H29.7408L3.87305 443.739H22.4051L38.2346 492.192H38.6207L54.3537 443.739H72.5962L46.2459 512.076Z" fill="#27569B"/>
<path d="M472.826 409.033L207.921 0H303.91L472.395 259.732L640.879 0H736.869L472.826 409.033Z" fill="#ED1C24"/>
<path d="M395.719 318.568L337.321 409.033L72.416 0H168.405L336.89 259.732L347.26 243.745L395.719 318.568Z" fill="#27569B"/>
<path d="M460.943 217.528L601.364 0H505.374L412.605 143.011L460.943 217.528Z" fill="#27569B"/>
</svg>
